# xmcd
#
# Track frame offsets: 
#        150
#        23225
#        43927
#        69732
#        97467
#        117797
#        146225
#        173192
#        192019
#        212939
#        238742
#        256678
#        278797
#        298036
#        324812
#        356404
#
# Disc length: 4986 seconds
#
# Revision: 0
# Processed by: cddbd v1.5.2PL0 Copyright (c) Steve Scherf et al.
# Submitted via: ExactAudioCopy v1.0b6
#
DISCID=fc137810
DTITLE=Art Farmer - Complete Albums Collection 1958-1961 (2016)
DYEAR=1958
DGENRE=Jazz Trumpet
TTITLE0=Back In The Cage
TTITLE1=Stablemates
TTITLE2=The Very Thought Of You
TTITLE3=And Now ...
TTITLE4=Nita
TTITLE5=By Myself
TTITLE6=Too Late Now
TTITLE7=Earth
TTITLE8=Mox Nix
TTITLE9=Fair Weather
TTITLE10=Darn That Dream
TTITLE11=The Touch Of Your Lips
TTITLE12=Jubilation
TTITLE13=Like Someone In Love
TTITLE14=I Love You
TTITLE15=Cold Breeze
EXTD=
EXTT0=
EXTT1=
EXTT2=
EXTT3=
EXTT4=
EXTT5=
EXTT6=
EXTT7=
EXTT8=
EXTT9=
EXTT10=
EXTT11=
EXTT12=
EXTT13=
EXTT14=
EXTT15=
PLAYORDER=
